# xmcd
#
# Track frame offsets: 
#        150
#        10579
#        31221
#        47422
#        64864
#        83772
#        102356
#        121990
#        136615
#        166406
#        184037
#        196224
#
# Disc length: 2861 seconds
#
# Revision: 1
# Processed by: cddbd v1.5.1PL0 Copyright (c) Steve Scherf et al.
# Submitted via: ExactAudioCopy v0.95a4
#
DISCID=8c0b2b0c
DTITLE=Big John Wrencher - Big John's Boogie Plus
DYEAR=2003
DGENRE=Blues
TTITLE0=Honeydripper
TTITLE1=Third Dgree
TTITLE2=Now Darling
TTITLE3=Where Did You Stay Last Night?
TTITLE4=Trouble Makin' Woman
TTITLE5=Lonesome In My Cabin
TTITLE6=How Many More Years?
TTITLE7=Come On Over
TTITLE8=Telephone Blues
TTITLE9=Runnin' Wild
TTITLE10=Big John's Boogie
TTITLE11=I'm A Root Man
EXTD=YEAR: 2003
EXTT0=
EXTT1=
EXTT2=
EXTT3=
EXTT4=
EXTT5=
EXTT6=
EXTT7=
EXTT8=
EXTT9=
EXTT10=
EXTT11=
PLAYORDER=
